<svg width="30" height="20" viewBox="0 0 50 29" fill="none" xmlns="http://www.w3.org/2000/svg">
<path fill-rule="evenodd" clip-rule="evenodd" d="M44.5052 20.0375C44.5052 20.0375 48.5477 24.03 49.5477 25.8775C49.5672 25.9042 49.5824 25.9337 49.5927 25.965C50.0002 26.6475 50.1002 27.1825 49.9002 27.5775C49.5627 28.23 48.4202 28.5575 48.0327 28.585H40.8877C40.3902 28.585 39.3552 28.455 38.0952 27.585C37.1327 26.9125 36.1752 25.805 35.2477 24.7225C33.8627 23.115 32.6652 21.72 31.4527 21.72C31.2996 21.7197 31.1475 21.745 31.0027 21.795C30.0852 22.085 28.9202 23.3925 28.9202 26.875C28.9202 27.965 28.0602 28.585 27.4577 28.585H24.1852C23.0702 28.585 17.2652 28.195 12.1177 22.7675C5.81023 16.1225 0.145225 2.7925 0.0902251 2.675C-0.262275 1.8125 0.477725 1.3425 1.27773 1.3425H8.49273C9.46023 1.3425 9.77522 1.9275 9.99522 2.4525C10.2502 3.055 11.1952 5.465 12.7452 8.1725C15.2552 12.5775 16.7977 14.37 18.0302 14.37C18.2618 14.3707 18.4894 14.3103 18.6902 14.195C20.3002 13.31 20.0002 7.56 19.9252 6.375C19.9252 6.145 19.9227 3.8075 19.0977 2.6775C18.5077 1.8675 17.5027 1.5525 16.8952 1.4375C17.0577 1.2025 17.4027 0.8425 17.8452 0.63C18.9477 0.0799996 20.9402 0 22.9177 0H24.0152C26.1602 0.03 26.7152 0.1675 27.4952 0.365C29.0652 0.74 29.0952 1.7575 28.9577 5.2225C28.9177 6.2125 28.8752 7.3275 28.8752 8.64C28.8752 8.92 28.8627 9.2325 28.8627 9.55C28.8152 11.3275 28.7527 13.33 30.0077 14.1525C30.1705 14.2539 30.3585 14.3076 30.5502 14.3075C30.9852 14.3075 32.2877 14.3075 35.8202 8.245C37.3702 5.5675 38.5702 2.41 38.6527 2.1725C38.7227 2.04 38.9327 1.6675 39.1877 1.5175C39.3691 1.42099 39.5723 1.37278 39.7777 1.3775H48.2652C49.1902 1.3775 49.8177 1.5175 49.9402 1.8675C50.1452 2.435 49.9002 4.1675 46.0252 9.4075C45.3727 10.28 44.8002 11.035 44.2977 11.695C40.7852 16.305 40.7852 16.5375 44.5052 20.0375Z" fill="#606060"/>
</svg>
