<svg width="42" height="34" viewBox="0 0 42 34" fill="none" xmlns="http://www.w3.org/2000/svg">
<path d="M21.5082 0.333496C22.6207 0.339746 25.404 0.366829 28.3623 0.485579L29.4123 0.531412C32.3894 0.670996 35.3644 0.912663 36.8415 1.32308C38.8103 1.87725 40.3561 3.48975 40.879 5.53558C41.7123 8.78558 41.8165 15.1231 41.829 16.6585L41.8311 16.9752V17.3377C41.8165 18.8731 41.7123 25.2127 40.879 28.4606C40.3498 30.5127 38.8019 32.1273 36.8415 32.6731C35.3644 33.0835 32.3894 33.3252 29.4123 33.4647L28.3623 33.5127C25.404 33.6293 22.6207 33.6585 21.5082 33.6627L21.0186 33.6647H20.4873C18.1332 33.6502 8.28734 33.5439 5.154 32.6731C3.18734 32.1189 1.63942 30.5064 1.1165 28.4606C0.283171 25.2106 0.179004 18.8731 0.166504 17.3377V16.6585C0.179004 15.1231 0.283171 8.7835 1.1165 5.53558C1.64567 3.4835 3.19359 1.86891 5.15609 1.32516C8.28734 0.452246 18.1353 0.345996 20.4894 0.333496H21.5082ZM16.8311 9.7085V24.2918L29.3311 17.0002L16.8311 9.7085Z" fill="#606060"/>
</svg>
