<svg width="25" height="20" viewBox="0 0 41 43" fill="none" xmlns="http://www.w3.org/2000/svg">
<path d="M40.625 12.5V20.3125C40.625 20.7269 40.4604 21.1243 40.1674 21.4174C39.8743 21.7104 39.4769 21.875 39.0625 21.875C35.7985 21.8826 32.5814 21.0977 29.6875 19.5879V27.3438C29.6875 31.2806 28.1236 35.0561 25.3399 37.8399C22.5561 40.6236 18.7806 42.1875 14.8438 42.1875C10.9069 42.1875 7.13138 40.6236 4.34763 37.8399C1.56389 35.0561 0 31.2806 0 27.3438C0 20.1367 5.25586 13.7656 12.2266 12.5234C12.4514 12.4835 12.6823 12.4933 12.903 12.5522C13.1237 12.6111 13.3288 12.7177 13.5038 12.8644C13.6788 13.0111 13.8196 13.1945 13.9161 13.4015C14.0126 13.6085 14.0626 13.8341 14.0625 14.0625V22.4004C14.0626 22.6961 13.9788 22.9858 13.8208 23.2357C13.6628 23.4857 13.4371 23.6857 13.1699 23.8125C12.5384 24.112 11.9987 24.5755 11.6073 25.1546C11.2159 25.7338 10.9871 26.4073 10.9447 27.105C10.9023 27.8027 11.0479 28.499 11.3663 29.1213C11.6847 29.7436 12.1642 30.269 12.7549 30.6428C13.3455 31.0166 14.0257 31.225 14.7243 31.2464C15.423 31.2678 16.1146 31.1013 16.727 30.7643C17.3394 30.4273 17.8501 29.9321 18.206 29.3305C18.5618 28.7288 18.7497 28.0427 18.75 27.3438V1.5625C18.75 1.1481 18.9146 0.750671 19.2076 0.457646C19.5007 0.16462 19.8981 0 20.3125 0H28.125C28.5394 0 28.9368 0.16462 29.2299 0.457646C29.5229 0.750671 29.6875 1.1481 29.6875 1.5625C29.6901 4.04811 30.6786 6.43118 32.4362 8.18877C34.1938 9.94636 36.5769 10.9349 39.0625 10.9375C39.4769 10.9375 39.8743 11.1021 40.1674 11.3951C40.4604 11.6882 40.625 12.0856 40.625 12.5Z" fill="#606060"/>
</svg>
